<mxfile host="app.diagrams.net" agent="Mozilla/5.0 (Macintosh; Intel Mac OS X 10_15_7) AppleWebKit/537.36 (KHTML, like Gecko) Chrome/128.0.0.0 Safari/537.36" version="24.7.16">
  <diagram name="Страница — 1" id="4-PUAj0N0p7zIZeUuscQ">
    <mxGraphModel dx="1026" dy="772" grid="0" gridSize="10" guides="1" tooltips="1" connect="1" arrows="1" fold="1" page="0" pageScale="1" pageWidth="827" pageHeight="1169" background="none" math="0" shadow="0">
      <root>
        <mxCell id="0" />
        <mxCell id="1" parent="0" />
        <mxCell id="yXyzmOvNkSmgwz7I5F-q-16" style="rounded=0;orthogonalLoop=1;jettySize=auto;html=1;endArrow=block;endFill=0;dashed=1;dashPattern=12 12;endSize=12;" parent="1" source="yXyzmOvNkSmgwz7I5F-q-11" target="yXyzmOvNkSmgwz7I5F-q-29" edge="1">
          <mxGeometry relative="1" as="geometry" />
        </mxCell>
        <mxCell id="yXyzmOvNkSmgwz7I5F-q-11" value="&lt;b&gt;FirstScreen&lt;/b&gt;" style="swimlane;fontStyle=0;childLayout=stackLayout;horizontal=1;startSize=26;fillColor=#d5e8d4;horizontalStack=0;resizeParent=1;resizeParentMax=0;resizeLast=0;collapsible=1;marginBottom=0;whiteSpace=wrap;html=1;strokeColor=#82b366;" parent="1" vertex="1">
          <mxGeometry x="390" y="380" width="260" height="52" as="geometry" />
        </mxCell>
        <mxCell id="yXyzmOvNkSmgwz7I5F-q-12" value="update(temperature, humidity, pressure) { ... }" style="text;strokeColor=#82b366;fillColor=#d5e8d4;align=left;verticalAlign=top;spacingLeft=4;spacingRight=4;overflow=hidden;rotatable=0;points=[[0,0.5],[1,0.5]];portConstraint=eastwest;whiteSpace=wrap;html=1;" parent="yXyzmOvNkSmgwz7I5F-q-11" vertex="1">
          <mxGeometry y="26" width="260" height="26" as="geometry" />
        </mxCell>
        <mxCell id="yXyzmOvNkSmgwz7I5F-q-17" value="&lt;b&gt;SecondScreen&lt;/b&gt;" style="swimlane;fontStyle=0;childLayout=stackLayout;horizontal=1;startSize=26;fillColor=#d5e8d4;horizontalStack=0;resizeParent=1;resizeParentMax=0;resizeLast=0;collapsible=1;marginBottom=0;whiteSpace=wrap;html=1;strokeColor=#82b366;" parent="1" vertex="1">
          <mxGeometry x="545" y="450" width="260" height="52" as="geometry" />
        </mxCell>
        <mxCell id="yXyzmOvNkSmgwz7I5F-q-18" value="update(temperature, humidity, pressure) { ... }" style="text;strokeColor=#82b366;fillColor=#d5e8d4;align=left;verticalAlign=top;spacingLeft=4;spacingRight=4;overflow=hidden;rotatable=0;points=[[0,0.5],[1,0.5]];portConstraint=eastwest;whiteSpace=wrap;html=1;" parent="yXyzmOvNkSmgwz7I5F-q-17" vertex="1">
          <mxGeometry y="26" width="260" height="26" as="geometry" />
        </mxCell>
        <mxCell id="yXyzmOvNkSmgwz7I5F-q-19" value="&lt;b&gt;ThirdScreen&lt;/b&gt;" style="swimlane;fontStyle=0;childLayout=stackLayout;horizontal=1;startSize=26;fillColor=#d5e8d4;horizontalStack=0;resizeParent=1;resizeParentMax=0;resizeLast=0;collapsible=1;marginBottom=0;whiteSpace=wrap;html=1;strokeColor=#82b366;" parent="1" vertex="1">
          <mxGeometry x="700" y="380" width="260" height="52" as="geometry" />
        </mxCell>
        <mxCell id="yXyzmOvNkSmgwz7I5F-q-20" value="update(temperature, humidity, pressure) { ... }" style="text;strokeColor=#82b366;fillColor=#d5e8d4;align=left;verticalAlign=top;spacingLeft=4;spacingRight=4;overflow=hidden;rotatable=0;points=[[0,0.5],[1,0.5]];portConstraint=eastwest;whiteSpace=wrap;html=1;" parent="yXyzmOvNkSmgwz7I5F-q-19" vertex="1">
          <mxGeometry y="26" width="260" height="26" as="geometry" />
        </mxCell>
        <mxCell id="yXyzmOvNkSmgwz7I5F-q-21" style="rounded=0;orthogonalLoop=1;jettySize=auto;html=1;endArrow=block;endFill=0;dashed=1;dashPattern=12 12;exitX=0.5;exitY=0;exitDx=0;exitDy=0;endSize=12;" parent="1" source="yXyzmOvNkSmgwz7I5F-q-19" target="yXyzmOvNkSmgwz7I5F-q-29" edge="1">
          <mxGeometry relative="1" as="geometry">
            <mxPoint x="510" y="420" as="sourcePoint" />
            <mxPoint x="595" y="330" as="targetPoint" />
          </mxGeometry>
        </mxCell>
        <mxCell id="yXyzmOvNkSmgwz7I5F-q-22" style="rounded=0;orthogonalLoop=1;jettySize=auto;html=1;endArrow=block;endFill=0;dashed=1;dashPattern=12 12;exitX=0.5;exitY=0;exitDx=0;exitDy=0;endSize=12;" parent="1" source="yXyzmOvNkSmgwz7I5F-q-17" target="yXyzmOvNkSmgwz7I5F-q-29" edge="1">
          <mxGeometry relative="1" as="geometry">
            <mxPoint x="520" y="430" as="sourcePoint" />
            <mxPoint x="605" y="340" as="targetPoint" />
          </mxGeometry>
        </mxCell>
        <mxCell id="yXyzmOvNkSmgwz7I5F-q-38" style="edgeStyle=orthogonalEdgeStyle;rounded=0;orthogonalLoop=1;jettySize=auto;html=1;endArrow=block;endFill=0;dashed=1;dashPattern=12 12;strokeWidth=1;endSize=12;fillColor=#dae8fc;strokeColor=#6c8ebf;" parent="1" source="yXyzmOvNkSmgwz7I5F-q-23" target="yXyzmOvNkSmgwz7I5F-q-35" edge="1">
          <mxGeometry relative="1" as="geometry" />
        </mxCell>
        <mxCell id="yXyzmOvNkSmgwz7I5F-q-23" value="WeatherData" style="swimlane;fontStyle=1;align=center;verticalAlign=top;childLayout=stackLayout;horizontal=1;startSize=26;horizontalStack=0;resizeParent=1;resizeParentMax=0;resizeLast=0;collapsible=1;marginBottom=0;whiteSpace=wrap;html=1;fillColor=#dae8fc;strokeColor=#6c8ebf;" parent="1" vertex="1">
          <mxGeometry x="50" y="250" width="230" height="212" as="geometry" />
        </mxCell>
        <mxCell id="yXyzmOvNkSmgwz7I5F-q-24" value="- observers: List&amp;lt;Observer&amp;gt;" style="text;strokeColor=#6c8ebf;fillColor=#dae8fc;align=left;verticalAlign=top;spacingLeft=4;spacingRight=4;overflow=hidden;rotatable=0;points=[[0,0.5],[1,0.5]];portConstraint=eastwest;whiteSpace=wrap;html=1;" parent="yXyzmOvNkSmgwz7I5F-q-23" vertex="1">
          <mxGeometry y="26" width="230" height="26" as="geometry" />
        </mxCell>
        <mxCell id="yXyzmOvNkSmgwz7I5F-q-25" value="" style="line;strokeWidth=1;fillColor=#dae8fc;align=left;verticalAlign=middle;spacingTop=-1;spacingLeft=3;spacingRight=3;rotatable=0;labelPosition=right;points=[];portConstraint=eastwest;strokeColor=#6c8ebf;" parent="yXyzmOvNkSmgwz7I5F-q-23" vertex="1">
          <mxGeometry y="52" width="230" height="8" as="geometry" />
        </mxCell>
        <mxCell id="yXyzmOvNkSmgwz7I5F-q-3" value="- getTemperature() { ... }" style="text;strokeColor=#6c8ebf;fillColor=#dae8fc;align=left;verticalAlign=top;spacingLeft=4;spacingRight=4;overflow=hidden;rotatable=0;points=[[0,0.5],[1,0.5]];portConstraint=eastwest;whiteSpace=wrap;html=1;" parent="yXyzmOvNkSmgwz7I5F-q-23" vertex="1">
          <mxGeometry y="60" width="230" height="22" as="geometry" />
        </mxCell>
        <mxCell id="yXyzmOvNkSmgwz7I5F-q-4" value="- getHumidity() { ... }" style="text;strokeColor=#6c8ebf;fillColor=#dae8fc;align=left;verticalAlign=top;spacingLeft=4;spacingRight=4;overflow=hidden;rotatable=0;points=[[0,0.5],[1,0.5]];portConstraint=eastwest;whiteSpace=wrap;html=1;" parent="yXyzmOvNkSmgwz7I5F-q-23" vertex="1">
          <mxGeometry y="82" width="230" height="26" as="geometry" />
        </mxCell>
        <mxCell id="yXyzmOvNkSmgwz7I5F-q-5" value="- getPressure() { ... }" style="text;strokeColor=#6c8ebf;fillColor=#dae8fc;align=left;verticalAlign=top;spacingLeft=4;spacingRight=4;overflow=hidden;rotatable=0;points=[[0,0.5],[1,0.5]];portConstraint=eastwest;whiteSpace=wrap;html=1;" parent="yXyzmOvNkSmgwz7I5F-q-23" vertex="1">
          <mxGeometry y="108" width="230" height="26" as="geometry" />
        </mxCell>
        <mxCell id="yXyzmOvNkSmgwz7I5F-q-6" value="- measurementsChanged() { }" style="text;strokeColor=#6c8ebf;fillColor=#dae8fc;align=left;verticalAlign=top;spacingLeft=4;spacingRight=4;overflow=hidden;rotatable=0;points=[[0,0.5],[1,0.5]];portConstraint=eastwest;whiteSpace=wrap;html=1;" parent="yXyzmOvNkSmgwz7I5F-q-23" vertex="1">
          <mxGeometry y="134" width="230" height="26" as="geometry" />
        </mxCell>
        <mxCell id="yXyzmOvNkSmgwz7I5F-q-41" value="+ addObserver(observer: Observer)&lt;br&gt;&lt;div&gt;&lt;br&gt;&lt;/div&gt;" style="text;align=left;verticalAlign=top;spacingLeft=4;spacingRight=4;overflow=hidden;rotatable=0;points=[[0,0.5],[1,0.5]];portConstraint=eastwest;whiteSpace=wrap;html=1;fillColor=#dae8fc;strokeColor=#6c8ebf;" parent="yXyzmOvNkSmgwz7I5F-q-23" vertex="1">
          <mxGeometry y="160" width="230" height="26" as="geometry" />
        </mxCell>
        <mxCell id="yXyzmOvNkSmgwz7I5F-q-42" value="+ removeObserver(observer: Observer)" style="text;align=left;verticalAlign=top;spacingLeft=4;spacingRight=4;overflow=hidden;rotatable=0;points=[[0,0.5],[1,0.5]];portConstraint=eastwest;whiteSpace=wrap;html=1;fillColor=#dae8fc;strokeColor=#6c8ebf;" parent="yXyzmOvNkSmgwz7I5F-q-23" vertex="1">
          <mxGeometry y="186" width="230" height="26" as="geometry" />
        </mxCell>
        <mxCell id="yXyzmOvNkSmgwz7I5F-q-27" style="edgeStyle=orthogonalEdgeStyle;rounded=0;orthogonalLoop=1;jettySize=auto;html=1;exitX=1;exitY=0.5;exitDx=0;exitDy=0;entryX=0;entryY=0.5;entryDx=0;entryDy=0;endSize=10;" parent="1" source="yXyzmOvNkSmgwz7I5F-q-24" target="yXyzmOvNkSmgwz7I5F-q-29" edge="1">
          <mxGeometry relative="1" as="geometry" />
        </mxCell>
        <mxCell id="yXyzmOvNkSmgwz7I5F-q-28" value="Содержит" style="edgeLabel;html=1;align=center;verticalAlign=middle;resizable=0;points=[];" parent="yXyzmOvNkSmgwz7I5F-q-27" connectable="0" vertex="1">
          <mxGeometry x="-0.3214" y="1" relative="1" as="geometry">
            <mxPoint x="45" y="1" as="offset" />
          </mxGeometry>
        </mxCell>
        <mxCell id="yXyzmOvNkSmgwz7I5F-q-29" value="«interface»&lt;br&gt;&lt;b&gt;Observer&lt;/b&gt;" style="swimlane;fontStyle=0;childLayout=stackLayout;horizontal=1;startSize=40;horizontalStack=0;resizeParent=1;resizeParentMax=0;resizeLast=0;collapsible=1;marginBottom=0;whiteSpace=wrap;html=1;fillColor=#d5e8d4;strokeColor=#82b366;" parent="1" vertex="1">
          <mxGeometry x="555" y="256" width="240" height="66" as="geometry" />
        </mxCell>
        <mxCell id="yXyzmOvNkSmgwz7I5F-q-30" value="+ update(temperature, humidity, pressure)" style="text;align=left;verticalAlign=top;spacingLeft=4;spacingRight=4;overflow=hidden;rotatable=0;points=[[0,0.5],[1,0.5]];portConstraint=eastwest;whiteSpace=wrap;html=1;fillColor=#d5e8d4;strokeColor=#82b366;" parent="yXyzmOvNkSmgwz7I5F-q-29" vertex="1">
          <mxGeometry y="40" width="240" height="26" as="geometry" />
        </mxCell>
        <UserObject label="&lt;span style=&quot;color: rgb(0, 0, 0); font-family: Helvetica; font-size: 12px; font-style: normal; font-variant-ligatures: normal; font-variant-caps: normal; font-weight: 400; letter-spacing: normal; orphans: 2; text-align: left; text-indent: 0px; text-transform: none; widows: 2; word-spacing: 0px; -webkit-text-stroke-width: 0px; white-space: normal; background-color: rgb(251, 251, 251); text-decoration-thickness: initial; text-decoration-style: initial; text-decoration-color: initial; display: inline !important; float: none;&quot;&gt;for observer in observers {&amp;nbsp;&lt;/span&gt;&lt;div&gt;&lt;span style=&quot;color: rgb(0, 0, 0); font-family: Helvetica; font-size: 12px; font-style: normal; font-variant-ligatures: normal; font-variant-caps: normal; font-weight: 400; letter-spacing: normal; orphans: 2; text-align: left; text-indent: 0px; text-transform: none; widows: 2; word-spacing: 0px; -webkit-text-stroke-width: 0px; white-space: normal; background-color: rgb(251, 251, 251); text-decoration-thickness: initial; text-decoration-style: initial; text-decoration-color: initial; display: inline !important; float: none;&quot;&gt;&lt;span style=&quot;white-space: pre;&quot;&gt;&#x9;&lt;/span&gt;observer.update(&lt;/span&gt;&lt;span style=&quot;background-color: initial;&quot;&gt;getTemperature(),&amp;nbsp;&lt;/span&gt;&lt;span style=&quot;background-color: initial;&quot;&gt;getHumidity(),&amp;nbsp;&lt;/span&gt;&lt;span style=&quot;background-color: initial;&quot;&gt;getPressure()&lt;/span&gt;&lt;span style=&quot;background-color: initial;&quot;&gt;)&lt;/span&gt;&lt;/div&gt;&lt;div&gt;&lt;span style=&quot;color: rgb(0, 0, 0); font-family: Helvetica; font-size: 12px; font-style: normal; font-variant-ligatures: normal; font-variant-caps: normal; font-weight: 400; letter-spacing: normal; orphans: 2; text-align: left; text-indent: 0px; text-transform: none; widows: 2; word-spacing: 0px; -webkit-text-stroke-width: 0px; white-space: normal; background-color: rgb(251, 251, 251); text-decoration-thickness: initial; text-decoration-style: initial; text-decoration-color: initial; display: inline !important; float: none;&quot;&gt;}&lt;/span&gt;&lt;/div&gt;" link="&lt;span style=&quot;color: rgb(0, 0, 0); font-family: Helvetica; font-size: 12px; font-style: normal; font-variant-ligatures: normal; font-variant-caps: normal; font-weight: 400; letter-spacing: normal; orphans: 2; text-align: left; text-indent: 0px; text-transform: none; widows: 2; word-spacing: 0px; -webkit-text-stroke-width: 0px; white-space: normal; background-color: rgb(251, 251, 251); text-decoration-thickness: initial; text-decoration-style: initial; text-decoration-color: initial; display: inline !important; float: none;&quot;&gt;foreach observer in observers {.it.update()&lt;/span&gt;" id="yXyzmOvNkSmgwz7I5F-q-33">
          <mxCell style="text;whiteSpace=wrap;html=1;strokeColor=default;dashed=1;dashPattern=8 8;perimeterSpacing=0;spacing=5;" parent="1" vertex="1">
            <mxGeometry x="50" y="540" width="380" height="60" as="geometry" />
          </mxCell>
        </UserObject>
        <mxCell id="yXyzmOvNkSmgwz7I5F-q-34" value="" style="endArrow=none;dashed=1;html=1;dashPattern=1 3;strokeWidth=2;rounded=0;exitX=0.5;exitY=0;exitDx=0;exitDy=0;" parent="1" source="yXyzmOvNkSmgwz7I5F-q-33" target="yXyzmOvNkSmgwz7I5F-q-6" edge="1">
          <mxGeometry width="50" height="50" relative="1" as="geometry">
            <mxPoint x="140" y="540" as="sourcePoint" />
            <mxPoint x="190" y="490" as="targetPoint" />
            <Array as="points">
              <mxPoint x="240" y="500" />
              <mxPoint x="10" y="500" />
              <mxPoint x="10" y="400" />
            </Array>
          </mxGeometry>
        </mxCell>
        <mxCell id="yXyzmOvNkSmgwz7I5F-q-35" value="«interface»&lt;br&gt;&lt;b&gt;Subject&lt;/b&gt;" style="swimlane;fontStyle=0;childLayout=stackLayout;horizontal=1;startSize=40;horizontalStack=0;resizeParent=1;resizeParentMax=0;resizeLast=0;collapsible=1;marginBottom=0;whiteSpace=wrap;html=1;fillColor=#dae8fc;strokeColor=#6c8ebf;" parent="1" vertex="1">
          <mxGeometry x="50" y="90" width="230" height="92" as="geometry" />
        </mxCell>
        <mxCell id="yXyzmOvNkSmgwz7I5F-q-36" value="+ addObserver(observer: Observer)&lt;br&gt;&lt;div&gt;&lt;br&gt;&lt;/div&gt;" style="text;align=left;verticalAlign=top;spacingLeft=4;spacingRight=4;overflow=hidden;rotatable=0;points=[[0,0.5],[1,0.5]];portConstraint=eastwest;whiteSpace=wrap;html=1;fillColor=#dae8fc;strokeColor=#6c8ebf;" parent="yXyzmOvNkSmgwz7I5F-q-35" vertex="1">
          <mxGeometry y="40" width="230" height="26" as="geometry" />
        </mxCell>
        <mxCell id="yXyzmOvNkSmgwz7I5F-q-37" value="+ removeObserver(observer: Observer)" style="text;align=left;verticalAlign=top;spacingLeft=4;spacingRight=4;overflow=hidden;rotatable=0;points=[[0,0.5],[1,0.5]];portConstraint=eastwest;whiteSpace=wrap;html=1;fillColor=#dae8fc;strokeColor=#6c8ebf;" parent="yXyzmOvNkSmgwz7I5F-q-35" vertex="1">
          <mxGeometry y="66" width="230" height="26" as="geometry" />
        </mxCell>
      </root>
    </mxGraphModel>
  </diagram>
</mxfile>
